<svg width="22" height="22" viewBox="0 0 22 22" fill="none" xmlns="http://www.w3.org/2000/svg">
<path fill-rule="evenodd" clip-rule="evenodd" d="M2.75 3.75C2.75 4.594 3.029 5.373 3.5 6H1.75C1.28587 6 0.840752 6.18437 0.512563 6.51256C0.184374 6.84075 0 7.28587 0 7.75V10.25C0 10.948 0.409 11.55 1 11.832V20.25C1 21.216 1.784 22 2.75 22H19.25C19.7141 22 20.1592 21.8156 20.4874 21.4874C20.8156 21.1592 21 20.7141 21 20.25V11.832C21.591 11.551 22 10.948 22 10.25V7.75C22 7.28587 21.8156 6.84075 21.4874 6.51256C21.1592 6.18437 20.7141 6 20.25 6H18.5C18.9179 5.44286 19.1723 4.78038 19.2348 4.08677C19.2974 3.39317 19.1655 2.69585 18.8541 2.07295C18.5427 1.45005 18.0639 0.926189 17.4715 0.560059C16.8791 0.19393 16.1964 0 15.5 0C14.044 0 12.064 0.901 11 3.11C9.936 0.901 7.955 0 6.5 0C5.50544 0 4.55161 0.395088 3.84835 1.09835C3.14509 1.80161 2.75 2.75544 2.75 3.75ZM10.22 6C9.933 2.507 7.65 1.5 6.5 1.5C5.90326 1.5 5.33097 1.73705 4.90901 2.15901C4.48705 2.58097 4.25 3.15326 4.25 3.75C4.25 4.34674 4.48705 4.91903 4.90901 5.34099C5.33097 5.76295 5.90326 6 6.5 6H10.22ZM19.5 12V20.25C19.5 20.3163 19.4737 20.3799 19.4268 20.4268C19.3799 20.4737 19.3163 20.5 19.25 20.5H11.75V12H19.5ZM10.25 20.5V12H2.5V20.25C2.5 20.388 2.612 20.5 2.75 20.5H10.25ZM20.25 10.5C20.3163 10.5 20.3799 10.4737 20.4268 10.4268C20.4737 10.3799 20.5 10.3163 20.5 10.25V7.75C20.5 7.6837 20.4737 7.62011 20.4268 7.57322C20.3799 7.52634 20.3163 7.5 20.25 7.5H11.75V10.5H20.25ZM1.75 10.5H10.25V7.5H1.75C1.6837 7.5 1.62011 7.52634 1.57322 7.57322C1.52634 7.62011 1.5 7.6837 1.5 7.75V10.25C1.5 10.388 1.612 10.5 1.75 10.5ZM17.75 3.75C17.75 4.34674 17.5129 4.91903 17.091 5.34099C16.669 5.76295 16.0967 6 15.5 6H11.78C12.067 2.507 14.35 1.5 15.5 1.5C16.0967 1.5 16.669 1.73705 17.091 2.15901C17.5129 2.58097 17.75 3.15326 17.75 3.75Z" fill="#007A8A"/>
</svg>
